<?xml version="1.0" encoding="UTF-8"?>
<!DOCTYPE svg PUBLIC "-//W3C//DTD SVG 1.1//EN" "http://www.w3.org/Graphics/SVG/1.1/DTD/svg11.dtd">
<svg xmlns="http://www.w3.org/2000/svg" xmlns:xlink="http://www.w3.org/1999/xlink" width="363px" height="143px" version="1.1" style="background-color: rgb(255, 255, 255);"><defs/><g transform="translate(0.5,0.5)"><path d="M 236 67.02 L 278.7 37.77" fill="none" stroke="#000000" stroke-miterlimit="10" pointer-events="none"/><path d="M 279.93 36.92 L 278.85 38.87 L 278.7 37.77 L 277.72 37.22 Z" fill="#000000" stroke="#000000" stroke-miterlimit="10" pointer-events="none"/><path d="M 226 62.2 L 275.12 35.81" fill="none" stroke="#000000" stroke-miterlimit="10" pointer-events="none"/><path d="M 276.44 35.1 L 275.16 36.93 L 275.12 35.81 L 274.21 35.17 Z" fill="#000000" stroke="#000000" stroke-miterlimit="10" pointer-events="none"/><path d="M 216 56.36 L 273.87 32.15" fill="none" stroke="#000000" stroke-miterlimit="10" pointer-events="none"/><path d="M 275.25 31.57 L 273.8 33.27 L 273.87 32.15 L 273.02 31.42 Z" fill="#000000" stroke="#000000" stroke-miterlimit="10" pointer-events="none"/><path d="M 206 50.05 L 274.93 28.5" fill="none" stroke="#000000" stroke-miterlimit="10" pointer-events="none"/><path d="M 276.36 28.05 L 274.75 29.6 L 274.93 28.5 L 274.15 27.69 Z" fill="#000000" stroke="#000000" stroke-miterlimit="10" pointer-events="none"/><path d="M 196 43.7 L 278.29 26.53" fill="none" stroke="#000000" stroke-miterlimit="10" pointer-events="none"/><path d="M 279.76 26.23 L 278.01 27.62 L 278.29 26.53 L 277.6 25.66 Z" fill="#000000" stroke="#000000" stroke-miterlimit="10" pointer-events="none"/><rect x="1" y="21" width="70" height="100" fill="#ffffff" stroke="#000000" pointer-events="none"/><rect x="126" y="1" width="70" height="100" fill="#ffffff" stroke="#000000" pointer-events="none"/><rect x="136" y="11" width="70" height="100" fill="#ffffff" stroke="#000000" pointer-events="none"/><rect x="146" y="21" width="70" height="100" fill="#ffffff" stroke="#000000" pointer-events="none"/><rect x="156" y="31" width="70" height="100" fill="#ffffff" stroke="#000000" pointer-events="none"/><rect x="166" y="41" width="70" height="100" fill="#ffffff" stroke="#000000" pointer-events="none"/><path d="M 71.14 46 L 120.02 28.18" fill="none" stroke="#000000" stroke-miterlimit="10" pointer-events="none"/><path d="M 124.95 26.38 L 119.57 32.07 L 120.02 28.18 L 117.17 25.49 Z" fill="#000000" stroke="#000000" stroke-miterlimit="10" pointer-events="none"/><path d="M 71.14 46 L 129.99 37.22" fill="none" stroke="#000000" stroke-miterlimit="10" pointer-events="none"/><path d="M 135.18 36.45 L 128.77 40.94 L 129.99 37.22 L 127.74 34.02 Z" fill="#000000" stroke="#000000" stroke-miterlimit="10" pointer-events="none"/><path d="M 71.14 46 L 139.63 46" fill="none" stroke="#000000" stroke-miterlimit="10" pointer-events="none"/><path d="M 144.88 46 L 137.88 49.5 L 139.63 46 L 137.88 42.5 Z" fill="#000000" stroke="#000000" stroke-miterlimit="10" pointer-events="none"/><path d="M 71.14 46 L 149.96 55.52" fill="none" stroke="#000000" stroke-miterlimit="10" pointer-events="none"/><path d="M 155.18 56.15 L 147.81 58.79 L 149.96 55.52 L 148.65 51.84 Z" fill="#000000" stroke="#000000" stroke-miterlimit="10" pointer-events="none"/><path d="M 71.14 46 L 159.77 64.69" fill="none" stroke="#000000" stroke-miterlimit="10" pointer-events="none"/><path d="M 164.91 65.77 L 157.33 67.75 L 159.77 64.69 L 158.78 60.9 Z" fill="#000000" stroke="#000000" stroke-miterlimit="10" pointer-events="none"/><rect x="291" y="21" width="70" height="100" fill="#ffffff" stroke="#000000" pointer-events="none"/><ellipse cx="281" cy="31" rx="5" ry="5" fill="#ffffff" stroke="#000000" transform="rotate(90,281,31)" pointer-events="none"/><path d="M 286 31.14 L 299.63 31.05" fill="none" stroke="#000000" stroke-miterlimit="10" pointer-events="none"/><path d="M 304.88 31.01 L 297.91 34.56 L 299.63 31.05 L 297.86 27.56 Z" fill="#000000" stroke="#000000" stroke-miterlimit="10" pointer-events="none"/></g></svg>